<svg id="visual" viewBox="0 0 1920 1080" width="1920" height="1080" xmlns="http://www.w3.org/2000/svg" xmlns:xlink="http://www.w3.org/1999/xlink" version="1.1"><rect x="0" y="0" width="1920" height="1080" fill="#121214"></rect><path d="M0 743L45.7 727.5C91.3 712 182.7 681 274.2 662.5C365.7 644 457.3 638 548.8 639C640.3 640 731.7 648 823 657.8C914.3 667.7 1005.7 679.3 1097 703.8C1188.3 728.3 1279.7 765.7 1371.2 771.7C1462.7 777.7 1554.3 752.3 1645.8 726.3C1737.3 700.3 1828.7 673.7 1874.3 660.3L1920 647L1920 1081L1874.3 1081C1828.7 1081 1737.3 1081 1645.8 1081C1554.3 1081 1462.7 1081 1371.2 1081C1279.7 1081 1188.3 1081 1097 1081C1005.7 1081 914.3 1081 823 1081C731.7 1081 640.3 1081 548.8 1081C457.3 1081 365.7 1081 274.2 1081C182.7 1081 91.3 1081 45.7 1081L0 1081Z" fill="#2d264a"></path><path d="M0 816L45.7 800C91.3 784 182.7 752 274.2 757.5C365.7 763 457.3 806 548.8 812.8C640.3 819.7 731.7 790.3 823 782.5C914.3 774.7 1005.7 788.3 1097 804.7C1188.3 821 1279.7 840 1371.2 828.8C1462.7 817.7 1554.3 776.3 1645.8 763.8C1737.3 751.3 1828.7 767.7 1874.3 775.8L1920 784L1920 1081L1874.3 1081C1828.7 1081 1737.3 1081 1645.8 1081C1554.3 1081 1462.7 1081 1371.2 1081C1279.7 1081 1188.3 1081 1097 1081C1005.7 1081 914.3 1081 823 1081C731.7 1081 640.3 1081 548.8 1081C457.3 1081 365.7 1081 274.2 1081C182.7 1081 91.3 1081 45.7 1081L0 1081Z" fill="#2a2543"></path><path d="M0 858L45.7 849.2C91.3 840.3 182.7 822.7 274.2 826.7C365.7 830.7 457.3 856.3 548.8 859.8C640.3 863.3 731.7 844.7 823 846.8C914.3 849 1005.7 872 1097 886.7C1188.3 901.3 1279.7 907.7 1371.2 892.2C1462.7 876.7 1554.3 839.3 1645.8 834.2C1737.3 829 1828.7 856 1874.3 869.5L1920 883L1920 1081L1874.3 1081C1828.7 1081 1737.3 1081 1645.8 1081C1554.3 1081 1462.7 1081 1371.2 1081C1279.7 1081 1188.3 1081 1097 1081C1005.7 1081 914.3 1081 823 1081C731.7 1081 640.3 1081 548.8 1081C457.3 1081 365.7 1081 274.2 1081C182.7 1081 91.3 1081 45.7 1081L0 1081Z" fill="#27243b"></path><path d="M0 948L45.7 935.3C91.3 922.7 182.7 897.3 274.2 891.2C365.7 885 457.3 898 548.8 908.3C640.3 918.7 731.7 926.3 823 925.2C914.3 924 1005.7 914 1097 908.2C1188.3 902.3 1279.7 900.7 1371.2 907.3C1462.7 914 1554.3 929 1645.8 930.3C1737.3 931.7 1828.7 919.3 1874.3 913.2L1920 907L1920 1081L1874.3 1081C1828.7 1081 1737.3 1081 1645.8 1081C1554.3 1081 1462.7 1081 1371.2 1081C1279.7 1081 1188.3 1081 1097 1081C1005.7 1081 914.3 1081 823 1081C731.7 1081 640.3 1081 548.8 1081C457.3 1081 365.7 1081 274.2 1081C182.7 1081 91.3 1081 45.7 1081L0 1081Z" fill="#242333"></path><path d="M0 964L45.7 973.2C91.3 982.3 182.7 1000.7 274.2 1009.5C365.7 1018.3 457.3 1017.7 548.8 1005.5C640.3 993.3 731.7 969.7 823 966.3C914.3 963 1005.7 980 1097 985.2C1188.3 990.3 1279.7 983.7 1371.2 982.8C1462.7 982 1554.3 987 1645.8 989.3C1737.3 991.7 1828.7 991.3 1874.3 991.2L1920 991L1920 1081L1874.3 1081C1828.7 1081 1737.3 1081 1645.8 1081C1554.3 1081 1462.7 1081 1371.2 1081C1279.7 1081 1188.3 1081 1097 1081C1005.7 1081 914.3 1081 823 1081C731.7 1081 640.3 1081 548.8 1081C457.3 1081 365.7 1081 274.2 1081C182.7 1081 91.3 1081 45.7 1081L0 1081Z" fill="#22212b"></path></svg>